<svg xmlns="http://www.w3.org/2000/svg" width="2982" height="96" viewBox="0 0 2982 96"><rect x="0" y="0" width="2982" height="96" fill="white"/><rect x="12" y="0" width="2" height="96" fill="black"/><rect x="16" y="0" width="2" height="96" fill="black"/><rect x="20" y="0" width="2" height="96" fill="black"/><rect x="24" y="0" width="2" height="96" fill="black"/><rect x="28" y="0" width="2" height="96" fill="black"/><rect x="34" y="0" width="2" height="96" fill="black"/><rect x="36" y="0" width="2" height="96" fill="black"/><rect x="40" y="0" width="2" height="96" fill="black"/><rect x="46" y="0" width="2" height="96" fill="black"/><rect x="50" y="0" width="2" height="96" fill="black"/><rect x="54" y="0" width="2" height="96" fill="black"/><rect x="56" y="0" width="2" height="96" fill="black"/><rect x="64" y="0" width="2" height="96" fill="black"/><rect x="68" y="0" width="2" height="96" fill="black"/><rect x="74" y="0" width="2" height="96" fill="black"/><rect x="84" y="0" width="2" height="96" fill="black"/><rect x="88" y="0" width="2" height="96" fill="black"/><rect x="90" y="0" width="2" height="96" fill="black"/><rect x="94" y="0" width="2" height="96" fill="black"/><rect x="100" y="0" width="2" height="96" fill="black"/><rect x="112" y="0" width="2" height="96" fill="black"/><rect x="118" y="0" width="2" height="96" fill="black"/><rect x="122" y="0" width="2" height="96" fill="black"/><rect x="126" y="0" width="2" height="96" fill="black"/><rect x="130" y="0" width="2" height="96" fill="black"/><rect x="136" y="0" width="2" height="96" fill="black"/><rect x="144" y="0" width="2" height="96" fill="black"/><rect x="154" y="0" width="2" height="96" fill="black"/><rect x="160" y="0" width="2" height="96" fill="black"/><rect x="166" y="0" width="2" height="96" fill="black"/><rect x="172" y="0" width="2" height="96" fill="black"/><rect x="176" y="0" width="2" height="96" fill="black"/><rect x="180" y="0" width="2" height="96" fill="black"/><rect x="190" y="0" width="2" height="96" fill="black"/><rect x="192" y="0" width="2" height="96" fill="black"/><rect x="194" y="0" width="2" height="96" fill="black"/><rect x="196" y="0" width="2" height="96" fill="black"/><rect x="198" y="0" width="2" height="96" fill="black"/><rect x="208" y="0" width="2" height="96" fill="black"/><rect x="220" y="0" width="2" height="96" fill="black"/><rect x="226" y="0" width="2" height="96" fill="black"/><rect x="230" y="0" width="2" height="96" fill="black"/><rect x="234" y="0" width="2" height="96" fill="black"/><rect x="238" y="0" width="2" height="96" fill="black"/><rect x="244" y="0" width="2" height="96" fill="black"/><rect x="252" y="0" width="2" height="96" fill="black"/><rect x="262" y="0" width="2" height="96" fill="black"/><rect x="268" y="0" width="2" height="96" fill="black"/><rect x="274" y="0" width="2" height="96" fill="black"/><rect x="280" y="0" width="2" height="96" fill="black"/><rect x="284" y="0" width="2" height="96" fill="black"/><rect x="288" y="0" width="2" height="96" fill="black"/><rect x="300" y="0" width="2" height="96" fill="black"/><rect x="304" y="0" width="2" height="96" fill="black"/><rect x="306" y="0" width="2" height="96" fill="black"/><rect x="310" y="0" width="2" height="96" fill="black"/><rect x="318" y="0" width="2" height="96" fill="black"/><rect x="320" y="0" width="2" height="96" fill="black"/><rect x="326" y="0" width="2" height="96" fill="black"/><rect x="328" y="0" width="2" height="96" fill="black"/><rect x="336" y="0" width="2" height="96" fill="black"/><rect x="340" y="0" width="2" height="96" fill="black"/><rect x="342" y="0" width="2" height="96" fill="black"/><rect x="346" y="0" width="2" height="96" fill="black"/><rect x="352" y="0" width="2" height="96" fill="black"/><rect x="360" y="0" width="2" height="96" fill="black"/><rect x="362" y="0" width="2" height="96" fill="black"/><rect x="372" y="0" width="2" height="96" fill="black"/><rect x="374" y="0" width="2" height="96" fill="black"/><rect x="380" y="0" width="2" height="96" fill="black"/><rect x="390" y="0" width="2" height="96" fill="black"/><rect x="392" y="0" width="2" height="96" fill="black"/><rect x="396" y="0" width="2" height="96" fill="black"/><rect x="398" y="0" width="2" height="96" fill="black"/><rect x="406" y="0" width="2" height="96" fill="black"/><rect x="414" y="0" width="2" height="96" fill="black"/><rect x="424" y="0" width="2" height="96" fill="black"/><rect x="436" y="0" width="2" height="96" fill="black"/><rect x="442" y="0" width="2" height="96" fill="black"/><rect x="450" y="0" width="2" height="96" fill="black"/><rect x="462" y="0" width="2" height="96" fill="black"/><rect x="464" y="0" width="2" height="96" fill="black"/><rect x="466" y="0" width="2" height="96" fill="black"/><rect x="478" y="0" width="2" height="96" fill="black"/><rect x="490" y="0" width="2" height="96" fill="black"/><rect x="496" y="0" width="2" height="96" fill="black"/><rect x="504" y="0" width="2" height="96" fill="black"/><rect x="506" y="0" width="2" height="96" fill="black"/><rect x="514" y="0" width="2" height="96" fill="black"/><rect x="524" y="0" width="2" height="96" fill="black"/><rect x="534" y="0" width="2" height="96" fill="black"/><rect x="536" y="0" width="2" height="96" fill="black"/><rect x="538" y="0" width="2" height="96" fill="black"/><rect x="552" y="0" width="2" height="96" fill="black"/><rect x="554" y="0" width="2" height="96" fill="black"/><rect x="562" y="0" width="2" height="96" fill="black"/><rect x="568" y="0" width="2" height="96" fill="black"/><rect x="570" y="0" width="2" height="96" fill="black"/><rect x="572" y="0" width="2" height="96" fill="black"/><rect x="574" y="0" width="2" height="96" fill="black"/><rect x="576" y="0" width="2" height="96" fill="black"/><rect x="586" y="0" width="2" height="96" fill="black"/><rect x="588" y="0" width="2" height="96" fill="black"/><rect x="594" y="0" width="2" height="96" fill="black"/><rect x="596" y="0" width="2" height="96" fill="black"/><rect x="606" y="0" width="2" height="96" fill="black"/><rect x="608" y="0" width="2" height="96" fill="black"/><rect x="614" y="0" width="2" height="96" fill="black"/><rect x="624" y="0" width="2" height="96" fill="black"/><rect x="626" y="0" width="2" height="96" fill="black"/><rect x="630" y="0" width="2" height="96" fill="black"/><rect x="632" y="0" width="2" height="96" fill="black"/><rect x="640" y="0" width="2" height="96" fill="black"/><rect x="642" y="0" width="2" height="96" fill="black"/><rect x="648" y="0" width="2" height="96" fill="black"/><rect x="658" y="0" width="2" height="96" fill="black"/><rect x="660" y="0" width="2" height="96" fill="black"/><rect x="670" y="0" width="2" height="96" fill="black"/><rect x="676" y="0" width="2" height="96" fill="black"/><rect x="678" y="0" width="2" height="96" fill="black"/><rect x="684" y="0" width="2" height="96" fill="black"/><rect x="696" y="0" width="2" height="96" fill="black"/><rect x="698" y="0" width="2" height="96" fill="black"/><rect x="700" y="0" width="2" height="96" fill="black"/><rect x="712" y="0" width="2" height="96" fill="black"/><rect x="714" y="0" width="2" height="96" fill="black"/><rect x="724" y="0" width="2" height="96" fill="black"/><rect x="730" y="0" width="2" height="96" fill="black"/><rect x="732" y="0" width="2" height="96" fill="black"/><rect x="738" y="0" width="2" height="96" fill="black"/><rect x="740" y="0" width="2" height="96" fill="black"/><rect x="748" y="0" width="2" height="96" fill="black"/><rect x="750" y="0" width="2" height="96" fill="black"/><rect x="758" y="0" width="2" height="96" fill="black"/><rect x="768" y="0" width="2" height="96" fill="black"/><rect x="770" y="0" width="2" height="96" fill="black"/><rect x="772" y="0" width="2" height="96" fill="black"/><rect x="786" y="0" width="2" height="96" fill="black"/><rect x="788" y="0" width="2" height="96" fill="black"/><rect x="796" y="0" width="2" height="96" fill="black"/><rect x="804" y="0" width="2" height="96" fill="black"/><rect x="806" y="0" width="2" height="96" fill="black"/><rect x="812" y="0" width="2" height="96" fill="black"/><rect x="822" y="0" width="2" height="96" fill="black"/><rect x="824" y="0" width="2" height="96" fill="black"/><rect x="826" y="0" width="2" height="96" fill="black"/><rect x="832" y="0" width="2" height="96" fill="black"/><rect x="840" y="0" width="2" height="96" fill="black"/><rect x="842" y="0" width="2" height="96" fill="black"/><rect x="846" y="0" width="2" height="96" fill="black"/><rect x="848" y="0" width="2" height="96" fill="black"/><rect x="856" y="0" width="2" height="96" fill="black"/><rect x="858" y="0" width="2" height="96" fill="black"/><rect x="864" y="0" width="2" height="96" fill="black"/><rect x="868" y="0" width="2" height="96" fill="black"/><rect x="876" y="0" width="2" height="96" fill="black"/><rect x="878" y="0" width="2" height="96" fill="black"/><rect x="882" y="0" width="2" height="96" fill="black"/><rect x="884" y="0" width="2" height="96" fill="black"/><rect x="892" y="0" width="2" height="96" fill="black"/><rect x="894" y="0" width="2" height="96" fill="black"/><rect x="902" y="0" width="2" height="96" fill="black"/><rect x="912" y="0" width="2" height="96" fill="black"/><rect x="914" y="0" width="2" height="96" fill="black"/><rect x="918" y="0" width="2" height="96" fill="black"/><rect x="930" y="0" width="2" height="96" fill="black"/><rect x="932" y="0" width="2" height="96" fill="black"/><rect x="948" y="0" width="2" height="96" fill="black"/><rect x="950" y="0" width="2" height="96" fill="black"/><rect x="952" y="0" width="2" height="96" fill="black"/><rect x="966" y="0" width="2" height="96" fill="black"/><rect x="968" y="0" width="2" height="96" fill="black"/><rect x="970" y="0" width="2" height="96" fill="black"/><rect x="982" y="0" width="2" height="96" fill="black"/><rect x="984" y="0" width="2" height="96" fill="black"/><rect x="990" y="0" width="2" height="96" fill="black"/><rect x="1002" y="0" width="2" height="96" fill="black"/><rect x="1004" y="0" width="2" height="96" fill="black"/><rect x="1010" y="0" width="2" height="96" fill="black"/><rect x="1012" y="0" width="2" height="96" fill="black"/><rect x="1020" y="0" width="2" height="96" fill="black"/><rect x="1022" y="0" width="2" height="96" fill="black"/><rect x="1028" y="0" width="2" height="96" fill="black"/><rect x="1030" y="0" width="2" height="96" fill="black"/><rect x="1038" y="0" width="2" height="96" fill="black"/><rect x="1040" y="0" width="2" height="96" fill="black"/><rect x="1044" y="0" width="2" height="96" fill="black"/><rect x="1056" y="0" width="2" height="96" fill="black"/><rect x="1058" y="0" width="2" height="96" fill="black"/><rect x="1064" y="0" width="2" height="96" fill="black"/><rect x="1074" y="0" width="2" height="96" fill="black"/><rect x="1076" y="0" width="2" height="96" fill="black"/><rect x="1078" y="0" width="2" height="96" fill="black"/><rect x="1084" y="0" width="2" height="96" fill="black"/><rect x="1092" y="0" width="2" height="96" fill="black"/><rect x="1094" y="0" width="2" height="96" fill="black"/><rect x="1098" y="0" width="2" height="96" fill="black"/><rect x="1102" y="0" width="2" height="96" fill="black"/><rect x="1110" y="0" width="2" height="96" fill="black"/><rect x="1112" y="0" width="2" height="96" fill="black"/><rect x="1116" y="0" width="2" height="96" fill="black"/><rect x="1118" y="0" width="2" height="96" fill="black"/><rect x="1128" y="0" width="2" height="96" fill="black"/><rect x="1130" y="0" width="2" height="96" fill="black"/><rect x="1132" y="0" width="2" height="96" fill="black"/><rect x="1138" y="0" width="2" height="96" fill="black"/><rect x="1146" y="0" width="2" height="96" fill="black"/><rect x="1148" y="0" width="2" height="96" fill="black"/><rect x="1154" y="0" width="2" height="96" fill="black"/><rect x="1156" y="0" width="2" height="96" fill="black"/><rect x="1162" y="0" width="2" height="96" fill="black"/><rect x="1164" y="0" width="2" height="96" fill="black"/><rect x="1170" y="0" width="2" height="96" fill="black"/><rect x="1174" y="0" width="2" height="96" fill="black"/><rect x="1182" y="0" width="2" height="96" fill="black"/><rect x="1184" y="0" width="2" height="96" fill="black"/><rect x="1188" y="0" width="2" height="96" fill="black"/><rect x="1200" y="0" width="2" height="96" fill="black"/><rect x="1202" y="0" width="2" height="96" fill="black"/><rect x="1206" y="0" width="2" height="96" fill="black"/><rect x="1208" y="0" width="2" height="96" fill="black"/><rect x="1210" y="0" width="2" height="96" fill="black"/><rect x="1218" y="0" width="2" height="96" fill="black"/><rect x="1220" y="0" width="2" height="96" fill="black"/><rect x="1226" y="0" width="2" height="96" fill="black"/><rect x="1234" y="0" width="2" height="96" fill="black"/><rect x="1236" y="0" width="2" height="96" fill="black"/><rect x="1242" y="0" width="2" height="96" fill="black"/><rect x="1244" y="0" width="2" height="96" fill="black"/><rect x="1252" y="0" width="2" height="96" fill="black"/><rect x="1254" y="0" width="2" height="96" fill="black"/><rect x="1264" y="0" width="2" height="96" fill="black"/><rect x="1272" y="0" width="2" height="96" fill="black"/><rect x="1274" y="0" width="2" height="96" fill="black"/><rect x="1282" y="0" width="2" height="96" fill="black"/><rect x="1290" y="0" width="2" height="96" fill="black"/><rect x="1292" y="0" width="2" height="96" fill="black"/><rect x="1294" y="0" width="2" height="96" fill="black"/><rect x="1300" y="0" width="2" height="96" fill="black"/><rect x="1308" y="0" width="2" height="96" fill="black"/><rect x="1310" y="0" width="2" height="96" fill="black"/><rect x="1316" y="0" width="2" height="96" fill="black"/><rect x="1318" y="0" width="2" height="96" fill="black"/><rect x="1324" y="0" width="2" height="96" fill="black"/><rect x="1326" y="0" width="2" height="96" fill="black"/><rect x="1334" y="0" width="2" height="96" fill="black"/><rect x="1336" y="0" width="2" height="96" fill="black"/><rect x="1344" y="0" width="2" height="96" fill="black"/><rect x="1346" y="0" width="2" height="96" fill="black"/><rect x="1352" y="0" width="2" height="96" fill="black"/><rect x="1354" y="0" width="2" height="96" fill="black"/><rect x="1360" y="0" width="2" height="96" fill="black"/><rect x="1362" y="0" width="2" height="96" fill="black"/><rect x="1368" y="0" width="2" height="96" fill="black"/><rect x="1380" y="0" width="2" height="96" fill="black"/><rect x="1382" y="0" width="2" height="96" fill="black"/><rect x="1386" y="0" width="2" height="96" fill="black"/><rect x="1398" y="0" width="2" height="96" fill="black"/><rect x="1400" y="0" width="2" height="96" fill="black"/><rect x="1402" y="0" width="2" height="96" fill="black"/><rect x="1416" y="0" width="2" height="96" fill="black"/><rect x="1418" y="0" width="2" height="96" fill="black"/><rect x="1424" y="0" width="2" height="96" fill="black"/><rect x="1426" y="0" width="2" height="96" fill="black"/><rect x="1432" y="0" width="2" height="96" fill="black"/><rect x="1434" y="0" width="2" height="96" fill="black"/><rect x="1442" y="0" width="2" height="96" fill="black"/><rect x="1452" y="0" width="2" height="96" fill="black"/><rect x="1454" y="0" width="2" height="96" fill="black"/><rect x="1462" y="0" width="2" height="96" fill="black"/><rect x="1470" y="0" width="2" height="96" fill="black"/><rect x="1472" y="0" width="2" height="96" fill="black"/><rect x="1476" y="0" width="2" height="96" fill="black"/><rect x="1478" y="0" width="2" height="96" fill="black"/><rect x="1480" y="0" width="2" height="96" fill="black"/><rect x="1486" y="0" width="2" height="96" fill="black"/><rect x="1488" y="0" width="2" height="96" fill="black"/><rect x="1494" y="0" width="2" height="96" fill="black"/><rect x="1498" y="0" width="2" height="96" fill="black"/><rect x="1506" y="0" width="2" height="96" fill="black"/><rect x="1508" y="0" width="2" height="96" fill="black"/><rect x="1510" y="0" width="2" height="96" fill="black"/><rect x="1516" y="0" width="2" height="96" fill="black"/><rect x="1524" y="0" width="2" height="96" fill="black"/><rect x="1526" y="0" width="2" height="96" fill="black"/><rect x="1530" y="0" width="2" height="96" fill="black"/><rect x="1532" y="0" width="2" height="96" fill="black"/><rect x="1534" y="0" width="2" height="96" fill="black"/><rect x="1542" y="0" width="2" height="96" fill="black"/><rect x="1544" y="0" width="2" height="96" fill="black"/><rect x="1546" y="0" width="2" height="96" fill="black"/><rect x="1552" y="0" width="2" height="96" fill="black"/><rect x="1560" y="0" width="2" height="96" fill="black"/><rect x="1562" y="0" width="2" height="96" fill="black"/><rect x="1570" y="0" width="2" height="96" fill="black"/><rect x="1578" y="0" width="2" height="96" fill="black"/><rect x="1580" y="0" width="2" height="96" fill="black"/><rect x="1582" y="0" width="2" height="96" fill="black"/><rect x="1594" y="0" width="2" height="96" fill="black"/><rect x="1596" y="0" width="2" height="96" fill="black"/><rect x="1602" y="0" width="2" height="96" fill="black"/><rect x="1606" y="0" width="2" height="96" fill="black"/><rect x="1612" y="0" width="2" height="96" fill="black"/><rect x="1614" y="0" width="2" height="96" fill="black"/><rect x="1620" y="0" width="2" height="96" fill="black"/><rect x="1622" y="0" width="2" height="96" fill="black"/><rect x="1630" y="0" width="2" height="96" fill="black"/><rect x="1632" y="0" width="2" height="96" fill="black"/><rect x="1640" y="0" width="2" height="96" fill="black"/><rect x="1642" y="0" width="2" height="96" fill="black"/><rect x="1648" y="0" width="2" height="96" fill="black"/><rect x="1650" y="0" width="2" height="96" fill="black"/><rect x="1656" y="0" width="2" height="96" fill="black"/><rect x="1658" y="0" width="2" height="96" fill="black"/><rect x="1668" y="0" width="2" height="96" fill="black"/><rect x="1670" y="0" width="2" height="96" fill="black"/><rect x="1674" y="0" width="2" height="96" fill="black"/><rect x="1676" y="0" width="2" height="96" fill="black"/><rect x="1686" y="0" width="2" height="96" fill="black"/><rect x="1688" y="0" width="2" height="96" fill="black"/><rect x="1692" y="0" width="2" height="96" fill="black"/><rect x="1694" y="0" width="2" height="96" fill="black"/><rect x="1704" y="0" width="2" height="96" fill="black"/><rect x="1706" y="0" width="2" height="96" fill="black"/><rect x="1710" y="0" width="2" height="96" fill="black"/><rect x="1712" y="0" width="2" height="96" fill="black"/><rect x="1720" y="0" width="2" height="96" fill="black"/><rect x="1722" y="0" width="2" height="96" fill="black"/><rect x="1728" y="0" width="2" height="96" fill="black"/><rect x="1732" y="0" width="2" height="96" fill="black"/><rect x="1738" y="0" width="2" height="96" fill="black"/><rect x="1740" y="0" width="2" height="96" fill="black"/><rect x="1742" y="0" width="2" height="96" fill="black"/><rect x="1744" y="0" width="2" height="96" fill="black"/><rect x="1746" y="0" width="2" height="96" fill="black"/><rect x="1756" y="0" width="2" height="96" fill="black"/><rect x="1762" y="0" width="2" height="96" fill="black"/><rect x="1764" y="0" width="2" height="96" fill="black"/><rect x="1768" y="0" width="2" height="96" fill="black"/><rect x="1774" y="0" width="2" height="96" fill="black"/><rect x="1784" y="0" width="2" height="96" fill="black"/><rect x="1786" y="0" width="2" height="96" fill="black"/><rect x="1794" y="0" width="2" height="96" fill="black"/><rect x="1796" y="0" width="2" height="96" fill="black"/><rect x="1798" y="0" width="2" height="96" fill="black"/><rect x="1802" y="0" width="2" height="96" fill="black"/><rect x="1812" y="0" width="2" height="96" fill="black"/><rect x="1814" y="0" width="2" height="96" fill="black"/><rect x="1820" y="0" width="2" height="96" fill="black"/><rect x="1822" y="0" width="2" height="96" fill="black"/><rect x="1828" y="0" width="2" height="96" fill="black"/><rect x="1830" y="0" width="2" height="96" fill="black"/><rect x="1840" y="0" width="2" height="96" fill="black"/><rect x="1848" y="0" width="2" height="96" fill="black"/><rect x="1850" y="0" width="2" height="96" fill="black"/><rect x="1854" y="0" width="2" height="96" fill="black"/><rect x="1856" y="0" width="2" height="96" fill="black"/><rect x="1866" y="0" width="2" height="96" fill="black"/><rect x="1868" y="0" width="2" height="96" fill="black"/><rect x="1884" y="0" width="2" height="96" fill="black"/><rect x="1886" y="0" width="2" height="96" fill="black"/><rect x="1890" y="0" width="2" height="96" fill="black"/><rect x="1892" y="0" width="2" height="96" fill="black"/><rect x="1900" y="0" width="2" height="96" fill="black"/><rect x="1902" y="0" width="2" height="96" fill="black"/><rect x="1908" y="0" width="2" height="96" fill="black"/><rect x="1920" y="0" width="2" height="96" fill="black"/><rect x="1922" y="0" width="2" height="96" fill="black"/><rect x="1924" y="0" width="2" height="96" fill="black"/><rect x="1930" y="0" width="2" height="96" fill="black"/><rect x="1938" y="0" width="2" height="96" fill="black"/><rect x="1940" y="0" width="2" height="96" fill="black"/><rect x="1954" y="0" width="2" height="96" fill="black"/><rect x="1956" y="0" width="2" height="96" fill="black"/><rect x="1964" y="0" width="2" height="96" fill="black"/><rect x="1966" y="0" width="2" height="96" fill="black"/><rect x="1972" y="0" width="2" height="96" fill="black"/><rect x="1974" y="0" width="2" height="96" fill="black"/><rect x="1982" y="0" width="2" height="96" fill="black"/><rect x="1992" y="0" width="2" height="96" fill="black"/><rect x="1994" y="0" width="2" height="96" fill="black"/><rect x="1998" y="0" width="2" height="96" fill="black"/><rect x="2008" y="0" width="2" height="96" fill="black"/><rect x="2010" y="0" width="2" height="96" fill="black"/><rect x="2018" y="0" width="2" height="96" fill="black"/><rect x="2020" y="0" width="2" height="96" fill="black"/><rect x="2028" y="0" width="2" height="96" fill="black"/><rect x="2030" y="0" width="2" height="96" fill="black"/><rect x="2046" y="0" width="2" height="96" fill="black"/><rect x="2048" y="0" width="2" height="96" fill="black"/><rect x="2052" y="0" width="2" height="96" fill="black"/><rect x="2054" y="0" width="2" height="96" fill="black"/><rect x="2064" y="0" width="2" height="96" fill="black"/><rect x="2066" y="0" width="2" height="96" fill="black"/><rect x="2070" y="0" width="2" height="96" fill="black"/><rect x="2072" y="0" width="2" height="96" fill="black"/><rect x="2082" y="0" width="2" height="96" fill="black"/><rect x="2084" y="0" width="2" height="96" fill="black"/><rect x="2088" y="0" width="2" height="96" fill="black"/><rect x="2100" y="0" width="2" height="96" fill="black"/><rect x="2102" y="0" width="2" height="96" fill="black"/><rect x="2106" y="0" width="2" height="96" fill="black"/><rect x="2108" y="0" width="2" height="96" fill="black"/><rect x="2110" y="0" width="2" height="96" fill="black"/><rect x="2118" y="0" width="2" height="96" fill="black"/><rect x="2120" y="0" width="2" height="96" fill="black"/><rect x="2134" y="0" width="2" height="96" fill="black"/><rect x="2136" y="0" width="2" height="96" fill="black"/><rect x="2144" y="0" width="2" height="96" fill="black"/><rect x="2154" y="0" width="2" height="96" fill="black"/><rect x="2156" y="0" width="2" height="96" fill="black"/><rect x="2172" y="0" width="2" height="96" fill="black"/><rect x="2174" y="0" width="2" height="96" fill="black"/><rect x="2176" y="0" width="2" height="96" fill="black"/><rect x="2190" y="0" width="2" height="96" fill="black"/><rect x="2192" y="0" width="2" height="96" fill="black"/><rect x="2198" y="0" width="2" height="96" fill="black"/><rect x="2206" y="0" width="2" height="96" fill="black"/><rect x="2208" y="0" width="2" height="96" fill="black"/><rect x="2218" y="0" width="2" height="96" fill="black"/><rect x="2226" y="0" width="2" height="96" fill="black"/><rect x="2228" y="0" width="2" height="96" fill="black"/><rect x="2232" y="0" width="2" height="96" fill="black"/><rect x="2236" y="0" width="2" height="96" fill="black"/><rect x="2244" y="0" width="2" height="96" fill="black"/><rect x="2246" y="0" width="2" height="96" fill="black"/><rect x="2248" y="0" width="2" height="96" fill="black"/><rect x="2262" y="0" width="2" height="96" fill="black"/><rect x="2264" y="0" width="2" height="96" fill="black"/><rect x="2280" y="0" width="2" height="96" fill="black"/><rect x="2282" y="0" width="2" height="96" fill="black"/><rect x="2288" y="0" width="2" height="96" fill="black"/><rect x="2290" y="0" width="2" height="96" fill="black"/><rect x="2298" y="0" width="2" height="96" fill="black"/><rect x="2300" y="0" width="2" height="96" fill="black"/><rect x="2302" y="0" width="2" height="96" fill="black"/><rect x="2316" y="0" width="2" height="96" fill="black"/><rect x="2318" y="0" width="2" height="96" fill="black"/><rect x="2322" y="0" width="2" height="96" fill="black"/><rect x="2332" y="0" width="2" height="96" fill="black"/><rect x="2334" y="0" width="2" height="96" fill="black"/><rect x="2340" y="0" width="2" height="96" fill="black"/><rect x="2352" y="0" width="2" height="96" fill="black"/><rect x="2354" y="0" width="2" height="96" fill="black"/><rect x="2356" y="0" width="2" height="96" fill="black"/><rect x="2370" y="0" width="2" height="96" fill="black"/><rect x="2372" y="0" width="2" height="96" fill="black"/><rect x="2378" y="0" width="2" height="96" fill="black"/><rect x="2388" y="0" width="2" height="96" fill="black"/><rect x="2390" y="0" width="2" height="96" fill="black"/><rect x="2394" y="0" width="2" height="96" fill="black"/><rect x="2398" y="0" width="2" height="96" fill="black"/><rect x="2406" y="0" width="2" height="96" fill="black"/><rect x="2408" y="0" width="2" height="96" fill="black"/><rect x="2410" y="0" width="2" height="96" fill="black"/><rect x="2422" y="0" width="2" height="96" fill="black"/><rect x="2424" y="0" width="2" height="96" fill="black"/><rect x="2430" y="0" width="2" height="96" fill="black"/><rect x="2432" y="0" width="2" height="96" fill="black"/><rect x="2442" y="0" width="2" height="96" fill="black"/><rect x="2444" y="0" width="2" height="96" fill="black"/><rect x="2450" y="0" width="2" height="96" fill="black"/><rect x="2458" y="0" width="2" height="96" fill="black"/><rect x="2460" y="0" width="2" height="96" fill="black"/><rect x="2466" y="0" width="2" height="96" fill="black"/><rect x="2476" y="0" width="2" height="96" fill="black"/><rect x="2478" y="0" width="2" height="96" fill="black"/><rect x="2484" y="0" width="2" height="96" fill="black"/><rect x="2496" y="0" width="2" height="96" fill="black"/><rect x="2498" y="0" width="2" height="96" fill="black"/><rect x="2502" y="0" width="2" height="96" fill="black"/><rect x="2504" y="0" width="2" height="96" fill="black"/><rect x="2514" y="0" width="2" height="96" fill="black"/><rect x="2516" y="0" width="2" height="96" fill="black"/><rect x="2520" y="0" width="2" height="96" fill="black"/><rect x="2532" y="0" width="2" height="96" fill="black"/><rect x="2534" y="0" width="2" height="96" fill="black"/><rect x="2540" y="0" width="2" height="96" fill="black"/><rect x="2542" y="0" width="2" height="96" fill="black"/><rect x="2548" y="0" width="2" height="96" fill="black"/><rect x="2550" y="0" width="2" height="96" fill="black"/><rect x="2556" y="0" width="2" height="96" fill="black"/><rect x="2560" y="0" width="2" height="96" fill="black"/><rect x="2566" y="0" width="2" height="96" fill="black"/><rect x="2568" y="0" width="2" height="96" fill="black"/><rect x="2578" y="0" width="2" height="96" fill="black"/><rect x="2586" y="0" width="2" height="96" fill="black"/><rect x="2588" y="0" width="2" height="96" fill="black"/><rect x="2596" y="0" width="2" height="96" fill="black"/><rect x="2602" y="0" width="2" height="96" fill="black"/><rect x="2604" y="0" width="2" height="96" fill="black"/><rect x="2610" y="0" width="2" height="96" fill="black"/><rect x="2614" y="0" width="2" height="96" fill="black"/><rect x="2620" y="0" width="2" height="96" fill="black"/><rect x="2622" y="0" width="2" height="96" fill="black"/><rect x="2632" y="0" width="2" height="96" fill="black"/><rect x="2640" y="0" width="2" height="96" fill="black"/><rect x="2642" y="0" width="2" height="96" fill="black"/><rect x="2646" y="0" width="2" height="96" fill="black"/><rect x="2648" y="0" width="2" height="96" fill="black"/><rect x="2656" y="0" width="2" height="96" fill="black"/><rect x="2658" y="0" width="2" height="96" fill="black"/><rect x="2664" y="0" width="2" height="96" fill="black"/><rect x="2666" y="0" width="2" height="96" fill="black"/><rect x="2676" y="0" width="2" height="96" fill="black"/><rect x="2678" y="0" width="2" height="96" fill="black"/><rect x="2692" y="0" width="2" height="96" fill="black"/><rect x="2694" y="0" width="2" height="96" fill="black"/><rect x="2702" y="0" width="2" height="96" fill="black"/><rect x="2704" y="0" width="2" height="96" fill="black"/><rect x="2710" y="0" width="2" height="96" fill="black"/><rect x="2712" y="0" width="2" height="96" fill="black"/><rect x="2720" y="0" width="2" height="96" fill="black"/><rect x="2722" y="0" width="2" height="96" fill="black"/><rect x="2730" y="0" width="2" height="96" fill="black"/><rect x="2732" y="0" width="2" height="96" fill="black"/><rect x="2734" y="0" width="2" height="96" fill="black"/><rect x="2740" y="0" width="2" height="96" fill="black"/><rect x="2746" y="0" width="2" height="96" fill="black"/><rect x="2748" y="0" width="2" height="96" fill="black"/><rect x="2754" y="0" width="2" height="96" fill="black"/><rect x="2756" y="0" width="2" height="96" fill="black"/><rect x="2766" y="0" width="2" height="96" fill="black"/><rect x="2768" y="0" width="2" height="96" fill="black"/><rect x="2772" y="0" width="2" height="96" fill="black"/><rect x="2784" y="0" width="2" height="96" fill="black"/><rect x="2786" y="0" width="2" height="96" fill="black"/><rect x="2790" y="0" width="2" height="96" fill="black"/><rect x="2794" y="0" width="2" height="96" fill="black"/><rect x="2800" y="0" width="2" height="96" fill="black"/><rect x="2802" y="0" width="2" height="96" fill="black"/><rect x="2808" y="0" width="2" height="96" fill="black"/><rect x="2812" y="0" width="2" height="96" fill="black"/><rect x="2820" y="0" width="2" height="96" fill="black"/><rect x="2822" y="0" width="2" height="96" fill="black"/><rect x="2826" y="0" width="2" height="96" fill="black"/><rect x="2836" y="0" width="2" height="96" fill="black"/><rect x="2838" y="0" width="2" height="96" fill="black"/><rect x="2846" y="0" width="2" height="96" fill="black"/><rect x="2856" y="0" width="2" height="96" fill="black"/><rect x="2858" y="0" width="2" height="96" fill="black"/><rect x="2862" y="0" width="2" height="96" fill="black"/><rect x="2866" y="0" width="2" height="96" fill="black"/><rect x="2874" y="0" width="2" height="96" fill="black"/><rect x="2876" y="0" width="2" height="96" fill="black"/><rect x="2880" y="0" width="2" height="96" fill="black"/><rect x="2882" y="0" width="2" height="96" fill="black"/><rect x="2892" y="0" width="2" height="96" fill="black"/><rect x="2894" y="0" width="2" height="96" fill="black"/><rect x="2898" y="0" width="2" height="96" fill="black"/><rect x="2900" y="0" width="2" height="96" fill="black"/><rect x="2910" y="0" width="2" height="96" fill="black"/><rect x="2912" y="0" width="2" height="96" fill="black"/><rect x="2914" y="0" width="2" height="96" fill="black"/><rect x="2928" y="0" width="2" height="96" fill="black"/><rect x="2930" y="0" width="2" height="96" fill="black"/><rect x="2932" y="0" width="2" height="96" fill="black"/><rect x="2938" y="0" width="2" height="96" fill="black"/><rect x="2946" y="0" width="2" height="96" fill="black"/><rect x="2948" y="0" width="2" height="96" fill="black"/><rect x="2952" y="0" width="2" height="96" fill="black"/><rect x="2956" y="0" width="2" height="96" fill="black"/><rect x="2960" y="0" width="2" height="96" fill="black"/><rect x="2962" y="0" width="2" height="96" fill="black"/><rect x="2966" y="0" width="2" height="96" fill="black"/><rect x="2968" y="0" width="2" height="96" fill="black"/></svg>